<?xml version="1.0" encoding="utf-8"?>
<!-- Generator: Adobe Illustrator 16.0.0, SVG Export Plug-In . SVG Version: 6.00 Build 0)  -->
<!DOCTYPE svg PUBLIC "-//W3C//DTD SVG 1.1//EN" "http://www.w3.org/Graphics/SVG/1.1/DTD/svg11.dtd">
<svg version="1.1" id="Layer_1" xmlns="http://www.w3.org/2000/svg" xmlns:xlink="http://www.w3.org/1999/xlink" x="0px" y="0px"
	 width="1000px" height="199.174px" viewBox="0 0 1000 199.174" enable-background="new 0 0 1000 199.174" xml:space="preserve">
<polygon fill="#F48020" points="489.982,193.23 409.351,193.23 390.402,148.626 489.982,148.626 "/>
<g>
	<path fill="#231F20" d="M344.083,99.248c-5.472,0-9.913-4.452-9.913-9.919c0-5.474,4.441-9.917,9.913-9.917
		c5.465,0,9.917,4.443,9.917,9.917C354,94.795,349.548,99.248,344.083,99.248 M344.083,80.977c-4.602,0-8.344,3.752-8.344,8.352
		c0,4.601,3.742,8.353,8.344,8.353c4.614,0,8.342-3.751,8.342-8.353C352.425,84.729,348.697,80.977,344.083,80.977"/>
	<path fill="#231F20" d="M339.141,95.469V83.181h4.974c1,0,1.762,0.105,2.278,0.323c0.525,0.228,0.94,0.613,1.255,1.181
		c0.313,0.56,0.466,1.171,0.466,1.854c0,0.866-0.256,1.61-0.778,2.204c-0.515,0.594-1.316,0.979-2.383,1.137
		c0.394,0.21,0.691,0.402,0.897,0.612c0.433,0.429,0.854,0.98,1.234,1.627l1.946,3.35h-1.864l-1.486-2.554
		c-0.437-0.735-0.805-1.303-1.071-1.697c-0.28-0.394-0.539-0.665-0.756-0.823c-0.219-0.149-0.446-0.263-0.693-0.332
		c-0.157-0.026-0.431-0.053-0.817-0.053h-1.717v5.458H339.141z M340.625,88.603h3.195c0.674,0,1.207-0.078,1.59-0.227
		c0.376-0.158,0.666-0.403,0.872-0.735c0.202-0.341,0.307-0.708,0.307-1.102c0-0.586-0.207-1.058-0.587-1.435
		c-0.387-0.375-0.986-0.567-1.823-0.567h-3.554V88.603z"/>
</g>
<path fill="#231F20" d="M177.696,159.52h-21.516l-11.098,27.671c-0.768,1.974-1.163,3.194-1.163,3.668
	c0,1.089,0.82,1.645,2.479,1.645v0.727h-10.929v-0.727c1.455,0,2.657-0.354,3.674-1.091c0.999-0.693,2.078-2.55,3.292-5.524
	l26.576-67.072h1.333l26.112,64.751c0,0.345,0.686,1.896,2.021,4.712c1.355,2.812,3.388,4.224,6.143,4.224v0.727h-17.125v-0.727
	c1.539,0,2.305-0.648,2.305-1.847c0-0.826-0.359-2.177-1.128-3.971c-0.131-0.143-0.229-0.364-0.346-0.667
	c-0.043-0.312-0.118-0.503-0.135-0.503L177.696,159.52z M156.858,157.444h19.855l-9.905-24.996L156.858,157.444z"/>
<path fill="#231F20" d="M244.224,119.935h11.01v0.768c-1.406,0.09-2.521,0.392-3.433,0.956c-0.895,0.607-1.931,1.747-3.106,3.521
	l-17.911,27.134v33.595c0,2.705,0.353,4.477,1.058,5.325c0.701,0.834,2.25,1.271,4.545,1.271v0.727H216.81v-0.727
	c3.751,0.241,5.628-1.251,5.628-4.416l-0.106-2.109v-30.983l-17.983-29.746c-1.88-3.147-3.991-4.657-6.306-4.547v-0.768h17.317
	v0.768c-1.653,0-2.43,0.594-2.43,1.813c0,0.636,0.415,1.606,1.237,2.934l14.814,24.38l16.146-24.58
	c0.297-0.262,0.609-0.746,1.01-1.434c0.358-0.725,0.521-1.218,0.521-1.49c0-1.099-0.718-1.624-2.144-1.624h-0.292V119.935z"/>
<path fill="#231F20" d="M319.992,119.935h14.17v0.768c-2.155,0.061-3.65,0.515-4.467,1.342c-0.836,0.855-1.256,2.63-1.256,5.352
	v66.741l-58.49-62.272v54.213c0,1.706,0.145,2.997,0.388,3.822c0.286,0.838,0.646,1.415,1.162,1.716
	c0.511,0.282,1.749,0.574,3.722,0.887v0.727h-14.064v-0.727c2.51,0,4.099-0.464,4.672-1.363c0.67-0.895,0.956-3.024,0.956-6.402
	v-49.588c0-4.355-0.591-7.904-1.821-10.647c-1.226-2.732-4.019-4.024-8.401-3.801v-0.768h13.774l54.968,58.514v-51.756
	c0-2.775-0.476-4.479-1.486-5.084c-1.015-0.634-2.276-0.907-3.827-0.907V119.935z"/>
<path fill="#231F20" d="M377.795,159.52h-21.547l-11.076,27.671c-0.775,1.974-1.128,3.194-1.128,3.668
	c0,1.089,0.783,1.645,2.425,1.645v0.727h-10.932v-0.727c1.475,0,2.712-0.354,3.688-1.091c1-0.693,2.094-2.55,3.28-5.524
	l26.605-67.072h1.275l26.159,64.751c0,0.345,0.666,1.896,2.021,4.712c1.328,2.812,3.399,4.224,6.122,4.224v0.727h-17.1v-0.727
	c1.547,0,2.323-0.648,2.323-1.847c0-0.826-0.368-2.177-1.153-3.971c-0.143-0.143-0.233-0.364-0.351-0.667
	c-0.043-0.312-0.098-0.503-0.098-0.503L377.795,159.52z M356.99,157.444h19.816l-9.94-24.996L356.99,157.444z"/>
<path fill="#231F20" d="M0,68.22v-1.298h36.642c9.341,0,16.058,0.17,20.16,0.583c4.189,0.403,8.409,1.773,12.788,4.063
	c4.348,2.328,7.651,5.466,9.87,9.417c2.203,3.914,3.327,8.764,3.327,14.521c0,6.542-1.951,12.792-5.916,18.722
	c-3.963,5.959-9.533,10.951-16.707,15.044l9.108,14.025c2.005,3.51,7.267,11.182,15.842,23.049
	c8.566,11.868,15.159,19.068,19.848,21.671c4.696,2.618,9.222,3.901,13.612,3.901c4.326,0,9.281-1.672,14.903-4.99l0.544,1.733
	c-7.032,5.748-16.15,8.61-27.345,8.61c-7.481,0-13.916-2.221-19.272-6.637c-5.405-4.423-14.729-16.553-28.062-36.426
	c-0.12-0.123-0.187-0.242-0.187-0.364l-12.985-19.944l-11.486,0.314h-10.48v49.404c0,3.964,0.56,6.807,1.538,8.552
	c1.055,1.713,3.583,2.569,7.607,2.569v1.292H0v-1.292c4.159-0.17,6.752-1.048,7.759-2.623c1.015-1.582,1.535-4.807,1.535-9.638
	V79.866c0-3.326-0.417-6.099-1.308-8.318C7.114,69.41,4.447,68.261,0,68.22 M24.205,70.29v60.596H37.74
	c10.669,0,18.542-2.491,23.75-7.57c5.123-4.994,7.692-11.576,7.692-19.773c0-7.946-2.524-15.477-7.586-22.587
	C56.54,73.857,47.616,70.29,34.84,70.29H24.205z"/>
<g>
	<path fill="#FAD00C" d="M220.26,0l8.824,101.777c0,0,14.368-1.394,22.246,1.301c6.646,2.279,6.249,9.73,6.273,8.742
		c0.965-41.713-0.762-91.673-0.762-91.673S230.887,14.874,220.26,0"/>
	<path fill="#F48020" d="M255.143,1.433L268.8,95.444l15.653-3.255l-1.396-90.737C283.057,1.452,266.194,9.306,255.143,1.433"/>
	<path fill="#23A0D0" d="M227.176,100.646c-5.444-27.817-11.487-58.419-11.896-59.407c-8.957-3.449-20.962,18.371-33.499,6.413
		c-7.148-6.776,11.409,25.935,28.708,55.396L227.176,100.646z"/>
	<path fill="#DC2431" d="M279.839,46.876c0,0,44.771,10.829,41.653,22.564c-2.988,11.293-13.859,43.952-20.731,64.389
		c-3.474-7.984-11.13-13.853-20.438-14.599L279.839,46.876z"/>
	<path fill="#FAD00C" d="M220.26,0l8.824,101.777c0,0,14.368-1.394,22.246,1.301c6.646,2.279,6.249,9.73,6.273,8.742
		c0.965-41.713-0.762-91.673-0.762-91.673S230.887,14.874,220.26,0"/>
	<path fill="#F48020" d="M255.143,1.433L268.8,95.444l15.653-3.255l-1.396-90.737C283.057,1.452,266.194,9.306,255.143,1.433"/>
	<path fill="#23A0D0" d="M227.176,100.646c-5.444-27.817-11.487-58.419-11.896-59.407c-8.957-3.449-20.962,18.371-33.499,6.413
		c-7.148-6.776,11.409,25.935,28.708,55.396L227.176,100.646z"/>
	<path fill="#DC2431" d="M279.839,46.876c0,0,44.771,10.829,41.653,22.564c-2.988,11.293-13.859,43.952-20.731,64.389
		c-3.474-7.984-11.13-13.853-20.438-14.599L279.839,46.876z"/>
</g>
<path fill="#231F20" d="M177.696,159.52h-21.516l-11.098,27.671c-0.768,1.974-1.163,3.194-1.163,3.668
	c0,1.089,0.82,1.645,2.479,1.645v0.727h-10.929v-0.727c1.455,0,2.657-0.354,3.674-1.091c0.999-0.693,2.078-2.55,3.292-5.524
	l26.576-67.072h1.333l26.112,64.751c0,0.345,0.686,1.896,2.021,4.712c1.355,2.812,3.388,4.224,6.143,4.224v0.727h-17.125v-0.727
	c1.539,0,2.305-0.648,2.305-1.847c0-0.826-0.359-2.177-1.128-3.971c-0.131-0.143-0.229-0.364-0.346-0.667
	c-0.043-0.312-0.118-0.503-0.135-0.503L177.696,159.52z M156.858,157.444h19.855l-9.905-24.996L156.858,157.444z"/>
<path fill="#231F20" d="M244.224,119.935h11.01v0.768c-1.406,0.09-2.521,0.392-3.433,0.956c-0.895,0.607-1.931,1.747-3.106,3.521
	l-17.911,27.134v33.595c0,2.705,0.353,4.477,1.058,5.325c0.701,0.834,2.25,1.271,4.545,1.271v0.727H216.81v-0.727
	c3.751,0.241,5.628-1.251,5.628-4.416l-0.106-2.109v-30.983l-17.983-29.746c-1.88-3.147-3.991-4.657-6.306-4.547v-0.768h17.317
	v0.768c-1.653,0-2.43,0.594-2.43,1.813c0,0.636,0.415,1.606,1.237,2.934l14.814,24.38l16.146-24.58
	c0.297-0.262,0.609-0.746,1.01-1.434c0.358-0.725,0.521-1.218,0.521-1.49c0-1.099-0.718-1.624-2.144-1.624h-0.292V119.935z"/>
<path fill="#231F20" d="M319.992,119.935h14.17v0.768c-2.155,0.061-3.65,0.515-4.467,1.342c-0.836,0.855-1.256,2.63-1.256,5.352
	v66.741l-58.49-62.272v54.213c0,1.706,0.145,2.997,0.388,3.822c0.286,0.838,0.646,1.415,1.162,1.716
	c0.511,0.282,1.749,0.574,3.722,0.887v0.727h-14.064v-0.727c2.51,0,4.099-0.464,4.672-1.363c0.67-0.895,0.956-3.024,0.956-6.402
	v-49.588c0-4.355-0.591-7.904-1.821-10.647c-1.226-2.732-4.019-4.024-8.401-3.801v-0.768h13.774l54.968,58.514v-51.756
	c0-2.775-0.476-4.479-1.486-5.084c-1.015-0.634-2.276-0.907-3.827-0.907V119.935z"/>
<path fill="#231F20" d="M377.795,159.52h-21.547l-11.076,27.671c-0.775,1.974-1.128,3.194-1.128,3.668
	c0,1.089,0.783,1.645,2.425,1.645v0.727h-10.932v-0.727c1.475,0,2.712-0.354,3.688-1.091c1-0.693,2.094-2.55,3.28-5.524
	l26.605-67.072h1.275l26.159,64.751c0,0.345,0.666,1.896,2.021,4.712c1.328,2.812,3.399,4.224,6.122,4.224v0.727h-17.1v-0.727
	c1.547,0,2.323-0.648,2.323-1.847c0-0.826-0.368-2.177-1.153-3.971c-0.143-0.143-0.233-0.364-0.351-0.667
	c-0.043-0.312-0.098-0.503-0.098-0.503L377.795,159.52z M356.99,157.444h19.816l-9.94-24.996L356.99,157.444z"/>
<path fill="#231F20" d="M0,68.22v-1.298h36.642c9.341,0,16.058,0.17,20.16,0.583c4.189,0.403,8.409,1.773,12.788,4.063
	c4.348,2.328,7.651,5.466,9.87,9.417c2.203,3.914,3.327,8.764,3.327,14.521c0,6.542-1.951,12.792-5.916,18.722
	c-3.963,5.959-9.533,10.951-16.707,15.044l9.108,14.025c2.005,3.51,7.267,11.182,15.842,23.049
	c8.566,11.868,15.159,19.068,19.848,21.671c4.696,2.618,9.222,3.901,13.612,3.901c4.326,0,9.281-1.672,14.903-4.99l0.544,1.733
	c-7.032,5.748-16.15,8.61-27.345,8.61c-7.481,0-13.916-2.221-19.272-6.637c-5.405-4.423-14.729-16.553-28.062-36.426
	c-0.12-0.123-0.187-0.242-0.187-0.364l-12.985-19.944l-11.486,0.314h-10.48v49.404c0,3.964,0.56,6.807,1.538,8.552
	c1.055,1.713,3.583,2.569,7.607,2.569v1.292H0v-1.292c4.159-0.17,6.752-1.048,7.759-2.623c1.015-1.582,1.535-4.807,1.535-9.638
	V79.866c0-3.326-0.417-6.099-1.308-8.318C7.114,69.41,4.447,68.261,0,68.22 M24.205,70.29v60.596H37.74
	c10.669,0,18.542-2.491,23.75-7.57c5.123-4.994,7.692-11.576,7.692-19.773c0-7.946-2.524-15.477-7.586-22.587
	C56.54,73.857,47.616,70.29,34.84,70.29H24.205z"/>
<g>
	<path d="M624.981,107.427l7.136-6.719c1.844-1.708,2.683-2.648,2.683-4.455c0-1.916-1.461-3.134-3.482-3.134
		c-2.267,0-3.552,1.391-3.728,3.271h-2.715c0.142-3.271,2.511-5.85,6.513-5.85c3.895,0,6.196,2.336,6.196,5.571
		c0,2.299-1.08,4.038-3.411,6.129l-5.221,4.733h8.805v2.646h-12.775V107.427L624.981,107.427z"/>
	<path d="M656.94,100.326c0-4.459-3.066-7.207-6.726-7.207c-3.649,0-6.716,2.748-6.716,7.207c0,4.453,3.066,7.205,6.716,7.205
		C653.874,107.531,656.94,104.779,656.94,100.326L656.94,100.326z M640.644,100.326c0-5.534,4.042-9.785,9.571-9.785
		c5.539,0,9.577,4.251,9.577,9.785c0,5.535-4.038,9.782-9.577,9.782C644.686,110.108,640.644,105.861,640.644,100.326
		L640.644,100.326z"/>
	<path d="M662.576,107.427l7.136-6.719c1.846-1.708,2.68-2.648,2.68-4.455c0-1.916-1.457-3.134-3.478-3.134
		c-2.269,0-3.553,1.391-3.729,3.271h-2.714c0.137-3.271,2.506-5.85,6.513-5.85c3.894,0,6.196,2.336,6.196,5.571
		c0,2.299-1.081,4.038-3.415,6.129l-5.221,4.733h8.805v2.646h-12.772V107.427L662.576,107.427z"/>
	<path d="M694.536,100.326c0-4.459-3.067-7.207-6.725-7.207c-3.655,0-6.718,2.748-6.718,7.207c0,4.453,3.063,7.205,6.718,7.205
		C691.469,107.531,694.536,104.779,694.536,100.326L694.536,100.326z M678.238,100.326c0-5.534,4.038-9.785,9.573-9.785
		c5.538,0,9.579,4.251,9.579,9.785c0,5.535-4.041,9.782-9.579,9.782C682.276,110.108,678.238,105.861,678.238,100.326
		L678.238,100.326z"/>
	<path d="M888.502,117.608c-7.062,0-12.788-5.724-12.788-12.782c0-7.063,5.727-12.786,12.788-12.786
		c7.058,0,12.779,5.722,12.779,12.786C901.281,111.884,895.56,117.608,888.502,117.608L888.502,117.608z M869.616,104.458
		c0-8.413-6.118-15.631-14.187-18.718c4.363-1.827,9.152-2.837,14.182-2.837s9.819,1.011,14.19,2.837
		C875.733,88.829,869.616,96.045,869.616,104.458L869.616,104.458z M850.722,117.608c-7.062,0-12.779-5.724-12.779-12.782
		c0-7.063,5.718-12.786,12.779-12.786c7.058,0,12.784,5.722,12.784,12.786C863.506,111.884,857.779,117.608,850.722,117.608
		L850.722,117.608z M901.238,90.868l6.177-6.727h-13.701c-6.861-4.683-15.145-7.417-24.103-7.417
		c-8.949,0-17.209,2.738-24.056,7.417h-13.743l6.181,6.727c-3.788,3.451-6.157,8.425-6.157,13.959
		c0,10.43,8.456,18.886,18.886,18.886c4.954,0,9.471-1.911,12.835-5.033l6.06,6.585l6.051-6.582
		c3.368,3.122,7.876,5.029,12.835,5.029c10.43,0,18.894-8.456,18.894-18.886C907.396,99.292,905.022,94.318,901.238,90.868
		L901.238,90.868z M895.202,104.827c0,3.699-3,6.697-6.7,6.697c-3.706,0-6.706-2.998-6.706-6.697c0-3.703,3-6.702,6.706-6.702
		C892.202,98.125,895.202,101.124,895.202,104.827L895.202,104.827z M857.423,104.827c0,3.699-3,6.697-6.701,6.697
		c-3.697,0-6.697-2.998-6.697-6.697c0-3.703,3-6.702,6.697-6.702C854.423,98.125,857.423,101.124,857.423,104.827L857.423,104.827z
		 M869.616,149.738c-26.857,0-48.633-21.768-48.633-48.628c0-26.856,21.775-48.629,48.633-48.629
		c26.855,0,48.632,21.773,48.632,48.629C918.248,127.97,896.472,149.738,869.616,149.738L869.616,149.738z M869.616,46.355
		c-30.24,0-54.759,24.515-54.759,54.754c0,30.24,24.519,54.756,54.759,54.756c30.239,0,54.753-24.516,54.753-54.756
		C924.369,70.871,899.855,46.355,869.616,46.355L869.616,46.355z"/>
	<path d="M839.145,161.656c0,0-6.631-5.107-18.585-6.509c-11.819-1.39-20.667,4.897-20.667,4.897s7.962,3.277,20.1,4.504
		C832.134,165.776,839.145,161.656,839.145,161.656L839.145,161.656z"/>
	<path d="M820.556,151.164c0,0-5.968-6.149-17.072-10.385c-11.106-4.24-21.878-1.614-21.878-1.614s6.835,6.48,18.654,10.994
		C812.096,154.673,820.556,151.164,820.556,151.164L820.556,151.164z"/>
	<path d="M802.803,136.592c0,0-3.471-8.497-12.722-17.033c-9.255-8.534-20.832-10.024-20.832-10.024s4.187,9.163,14.037,18.251
		C793.14,136.88,802.803,136.592,802.803,136.592L802.803,136.592z"/>
	<path d="M799.324,120.295c0,0-1.147-9.144-7.842-19.805c-6.692-10.653-17.44-15.057-17.44-15.057s1.665,9.974,8.797,21.324
		C789.968,118.108,799.324,120.295,799.324,120.295L799.324,120.295z"/>
	<path d="M799.768,98.466c0,0-0.317-9.365-5.934-20.756c-5.621-11.395-15.769-16.833-15.769-16.833s0.752,10.244,6.736,22.381
		C790.786,95.392,799.768,98.466,799.768,98.466L799.768,98.466z"/>
	<path d="M826.295,144.966c0,0-2.778-6.963-10.273-13.996c-7.493-7.036-16.944-8.332-16.944-8.332s3.357,7.508,11.34,15.004
		C818.398,145.136,826.295,144.966,826.295,144.966L826.295,144.966z"/>
	<path d="M845.188,155.341c0,0-3.858-3.758-10.881-6.492c-7.03-2.738-13.701-1.408-13.701-1.408s4.403,3.969,11.884,6.883
		C839.971,157.238,845.188,155.341,845.188,155.341L845.188,155.341z"/>
	<path d="M863.533,159.064c0,0-4.007-1.653-9.991-1.449c-5.977,0.201-10.406,3.46-10.406,3.46s4.469,1.635,10.837,1.424
		C860.345,162.279,863.533,159.064,863.533,159.064L863.533,159.064z"/>
	<path d="M818.026,128.126c0,0-1.297-7.41-7.172-15.845c-5.879-8.435-14.82-11.606-14.82-11.606s1.747,8.072,8.006,17.052
		C810.303,126.708,818.026,128.126,818.026,128.126L818.026,128.126z"/>
	<path d="M810.639,105.536c0,0,1.434-7.514-0.979-17.604c-2.42-10.093-9.517-16.258-9.517-16.258s-1.25,8.295,1.319,19.045
		C804.04,101.462,810.639,105.536,810.639,105.536L810.639,105.536z"/>
	<path d="M900.087,161.656c0,0,6.63-5.107,18.576-6.509c11.824-1.39,20.676,4.897,20.676,4.897s-7.963,3.277-20.1,4.504
		C907.098,165.776,900.087,161.656,900.087,161.656L900.087,161.656z"/>
	<path d="M918.671,151.164c0,0,5.969-6.149,17.073-10.385c11.107-4.24,21.877-1.614,21.877-1.614s-6.834,6.48-18.658,10.994
		C927.135,154.673,918.671,151.164,918.671,151.164L918.671,151.164z"/>
	<path d="M936.425,136.592c0,0,3.475-8.497,12.721-17.033c9.256-8.534,20.837-10.024,20.837-10.024s-4.19,9.163-14.037,18.251
		C946.091,136.88,936.425,136.592,936.425,136.592L936.425,136.592z"/>
	<path d="M939.903,120.295c0,0,1.151-9.144,7.841-19.805c6.693-10.653,17.444-15.057,17.444-15.057s-1.665,9.974-8.801,21.324
		C949.264,118.108,939.903,120.295,939.903,120.295L939.903,120.295z"/>
	<path d="M939.46,98.466c0,0,0.322-9.365,5.935-20.756c5.62-11.395,15.771-16.833,15.771-16.833s-0.751,10.244-6.74,22.381
		C948.445,95.392,939.46,98.466,939.46,98.466L939.46,98.466z"/>
	<path d="M912.938,144.966c0,0,2.772-6.963,10.269-13.996c7.501-7.036,16.947-8.332,16.947-8.332s-3.36,7.508-11.339,15.004
		C920.833,145.136,912.938,144.966,912.938,144.966L912.938,144.966z"/>
	<path d="M894.043,155.341c0,0,3.859-3.758,10.881-6.492c7.026-2.738,13.7-1.408,13.7-1.408s-4.398,3.969-11.884,6.883
		C899.261,157.238,894.043,155.341,894.043,155.341L894.043,155.341z"/>
	<path d="M875.698,159.064c0,0,4.007-1.653,9.987-1.449c5.977,0.201,10.406,3.46,10.406,3.46s-4.469,1.635-10.833,1.424
		C878.886,162.279,875.698,159.064,875.698,159.064L875.698,159.064z"/>
	<path d="M921.206,128.126c0,0,1.292-7.41,7.171-15.845s14.819-11.606,14.819-11.606s-1.754,8.072-8.013,17.052
		C928.929,126.708,921.206,128.126,921.206,128.126L921.206,128.126z"/>
	<path d="M928.592,105.536c0,0-1.438-7.514,0.979-17.604c2.416-10.093,9.513-16.258,9.513-16.258s1.253,8.295-1.319,19.045
		C935.188,101.462,928.592,105.536,928.592,105.536L928.592,105.536z"/>
	<path d="M872.659,161.737c0,1.678-1.363,3.042-3.043,3.042c-1.681,0-3.044-1.363-3.044-3.042c0-1.683,1.363-3.043,3.044-3.043
		C871.296,158.693,872.659,160.054,872.659,161.737L872.659,161.737z"/>
	<path d="M809.5,180.566v-2.781h-4.266v16.536h4.266v-9.913c0-1.796,1.146-2.683,2.945-2.683h2.33v-3.94h-1.993
		C811.219,177.785,809.864,178.598,809.5,180.566L809.5,180.566z"/>
	<polygon points="816.644,194.321 820.893,194.321 820.893,177.785 816.644,177.785 816.644,194.321 	"/>
	<path d="M832.224,190.694c-2.565,0-4.641-2.076-4.641-4.637c0-2.57,2.075-4.646,4.641-4.646s4.641,2.076,4.641,4.646
		C836.864,188.618,834.789,190.694,832.224,190.694L832.224,190.694z M832.6,177.507c-1.906,0-3.634,0.623-5.017,1.678v-1.4h-4.253
		v21.389h4.253v-6.251c1.383,1.054,3.11,1.679,5.017,1.679c4.72,0,8.546-3.827,8.546-8.544
		C841.146,181.335,837.319,177.507,832.6,177.507L832.6,177.507z"/>
	<path d="M915.049,184.602l-2.488-0.68c-1.628-0.423-2.263-0.924-2.263-1.786c0-0.842,0.893-1.429,2.174-1.429
		c1.214,0,2.173,0.797,2.173,1.815v0.092h3.917v-0.092c0-3-2.448-5.015-6.09-5.015c-3.607,0-6.231,2.016-6.231,4.792
		c0,2.156,1.434,3.784,3.928,4.461l2.377,0.648c1.802,0.499,2.477,1.055,2.477,2.044c0,1.046-0.973,1.753-2.414,1.753
		c-1.508,0-2.514-0.952-2.514-2.366v-0.094h-4.159v0.094c0,3.39,2.726,5.761,6.638,5.761c3.769,0,6.506-2.313,6.506-5.501
		C919.078,187.538,918.377,185.493,915.049,184.602L915.049,184.602z"/>
	<path d="M851.583,190.694c-2.561,0-4.645-2.076-4.645-4.637c0-2.57,2.084-4.646,4.645-4.646c2.57,0,4.646,2.076,4.646,4.646l0,0
		C856.229,188.618,854.153,190.694,851.583,190.694L851.583,190.694z M856.229,179.185c-1.383-1.055-3.113-1.678-5.017-1.678
		c-4.716,0-8.551,3.829-8.551,8.55c0,4.717,3.835,8.544,8.551,8.544c1.903,0,3.634-0.625,5.017-1.679v1.398h4.25v-16.536h-4.25
		V179.185L856.229,179.185z"/>
	<path d="M871.19,190.694c-2.565,0-4.642-2.076-4.642-4.637c0-2.57,2.076-4.646,4.642-4.646s4.646,2.076,4.646,4.646
		C875.836,188.618,873.756,190.694,871.19,190.694L871.19,190.694z M875.836,179.185c-1.387-1.055-3.114-1.678-5.021-1.678
		c-4.72,0-8.546,3.829-8.546,8.55c0,4.717,3.826,8.544,8.546,8.544c1.907,0,3.635-0.625,5.021-1.679v1.398h4.249V171.9h-4.249
		V179.185L875.836,179.185z"/>
	<polygon points="899.824,194.321 904.077,194.321 904.077,177.785 899.824,177.785 899.824,194.321 	"/>
	<path d="M928.905,190.694c-2.562,0-4.642-2.076-4.642-4.637c0-2.57,2.08-4.646,4.642-4.646c2.564,0,4.645,2.076,4.645,4.646
		C933.55,188.618,931.47,190.694,928.905,190.694L928.905,190.694z M928.905,177.507c-4.72,0-8.546,3.829-8.546,8.55
		c0,4.717,3.826,8.544,8.546,8.544c4.724,0,8.55-3.827,8.55-8.544C937.455,181.335,933.629,177.507,928.905,177.507L928.905,177.507
		z"/>
	<path d="M943.687,180.566v-2.781h-4.266v16.536h4.266v-9.913c0-1.796,1.151-2.683,2.945-2.683h2.334v-3.94h-1.997
		C945.414,177.785,944.059,178.598,943.687,180.566L943.687,180.566z"/>
	<polygon points="807.322,171.9 791.01,171.9 791.01,175.696 797.045,175.696 797.045,194.321 801.283,194.321 801.283,175.696 
		807.322,175.696 807.322,171.9 	"/>
	<polygon points="889.802,189.793 886.019,177.785 881.554,177.785 887.225,194.321 892.34,194.321 898.05,177.785 893.577,177.785 
		889.802,189.793 	"/>
	<path d="M821.359,173.853c0,1.434-1.159,2.597-2.589,2.597c-1.438,0-2.593-1.164-2.593-2.597c0-1.428,1.155-2.591,2.593-2.591
		C820.2,171.262,821.359,172.425,821.359,173.853L821.359,173.853z"/>
	<path d="M904.56,173.853c0,1.434-1.159,2.597-2.593,2.597c-1.43,0-2.594-1.164-2.594-2.597c0-1.428,1.164-2.591,2.594-2.591
		C903.4,171.262,904.56,172.425,904.56,173.853L904.56,173.853z"/>
	<polygon points="588.877,124.271 579.948,124.271 579.948,150.639 573.027,150.639 573.027,124.271 564.097,124.271 
		564.097,117.914 588.877,117.914 588.877,124.271 	"/>
	<path d="M601.078,127.547v6.215h-3.467c-2.522,0-3.732,1.216-3.732,3.74v13.137h-6.553v-23.092h6.079v4.3
		c0.517-3.086,2.62-4.3,4.821-4.3H601.078L601.078,127.547z"/>
	<path d="M620.591,139.095c0-3.697-2.71-6.127-6.079-6.127c-3.368,0-6.078,2.43-6.078,6.127c0,3.693,2.71,6.12,6.078,6.12
		C617.881,145.215,620.591,142.788,620.591,139.095L620.591,139.095z M601.885,139.095c0-6.782,4.817-12.206,11.46-12.206
		c3.27,0,5.703,1.026,7.246,2.618v-1.96h6.078v23.092h-6.078v-2.804c-1.496,2.013-3.698,3.462-7.434,3.462
		C606.659,151.297,601.885,145.873,601.885,139.095L601.885,139.095z"/>
	<path d="M629.234,127.547h7.015l3.51,12.2c0.418,1.402,0.649,2.338,0.885,3.413c0.235-1.075,0.47-2.011,0.889-3.413l3.502-12.2
		h7.015l-7.665,23.092h-7.478L629.234,127.547L629.234,127.547z"/>
	<path d="M658.734,135.725h10.708c-0.658-2.291-2.479-3.785-5.472-3.785C661.586,131.939,659.576,133.387,658.734,135.725
		L658.734,135.725z M675.567,140.636h-17.158c0.278,3.178,2.663,5.236,5.519,5.236c2.663,0,4.625-1.402,5.185-3.509h6.268
		c-1.124,5.662-5.283,8.934-11.452,8.934c-7.25,0-12.017-5.334-12.017-12.202c0-7.201,5.464-12.206,11.97-12.206
		c7.288,0,11.687,4.446,11.687,12.721V140.636L675.567,140.636z"/>
	<polygon points="678.568,117.914 685.108,117.914 685.108,150.639 678.568,150.639 678.568,117.914 	"/>
	<path d="M694.685,135.725h10.704c-0.658-2.291-2.479-3.785-5.472-3.785C697.528,131.939,695.522,133.387,694.685,135.725
		L694.685,135.725z M711.514,140.636h-17.158c0.278,3.178,2.663,5.236,5.515,5.236c2.668,0,4.629-1.402,5.189-3.509h6.263
		c-1.12,5.662-5.279,8.934-11.452,8.934c-7.246,0-12.012-5.334-12.012-12.202c0-7.201,5.464-12.206,11.961-12.206
		c7.296,0,11.694,4.446,11.694,12.721V140.636L711.514,140.636z"/>
	<path d="M728.281,127.547v6.215h-3.459c-2.521,0-3.743,1.216-3.743,3.74v13.137h-6.546v-23.092h6.079v4.3
		c0.514-3.086,2.62-4.3,4.817-4.3H728.281L728.281,127.547z"/>
	<path d="M730.056,143.068h6.639c0,1.586,0.979,2.663,2.572,2.663c1.54,0,2.477-0.748,2.477-1.917c0-1.259-1.031-1.962-3.134-2.569
		l-3.039-0.891c-3.039-0.889-5.144-3.036-5.144-6.406c0-4.253,3.835-7.06,8.602-7.06c5.425,0,8.421,3.086,8.421,7.387h-6.173
		c0-1.121-0.889-2.197-2.292-2.197c-1.312,0-2.196,0.748-2.196,1.637c0,1.079,0.842,1.59,2.663,2.104l3.364,0.936
		c3.091,0.842,5.24,2.949,5.24,6.406c0,4.346-3.414,8.137-8.887,8.137C734.125,151.297,730.056,148.164,730.056,143.068
		L730.056,143.068z"/>
	<path d="M750.605,128.526h0.607c1.594,0,3.039-0.842,3.325-3.224c-0.286,0.137-0.564,0.186-0.937,0.186
		c-2.291,0-4.069-1.733-4.069-4.115c0-2.291,1.821-4.116,4.112-4.116c2.949,0,4.583,2.712,4.583,6.267
		c0,5.703-2.758,8.37-6.639,8.37h-0.983V128.526L750.605,128.526z"/>
	<path d="M588.482,176.326c0-10.054,7.484-17.02,16.504-17.02c8.789,0,14.308,4.867,15.569,12.627h-7.058
		c-1.031-3.836-4.113-6.172-8.512-6.172c-5.283,0-9.58,4.3-9.58,10.565c0,6.264,4.297,10.569,9.58,10.569
		c4.352,0,7.48-2.248,8.512-6.224h7.198c-1.402,7.861-7.575,12.674-15.71,12.674C595.826,193.346,588.482,186.378,588.482,176.326
		L588.482,176.326z"/>
	<path d="M623.603,159.96h6.548v12.766c1.026-1.915,3.647-3.787,7.336-3.787c4.583,0,7.811,3.228,7.811,8.508v15.242h-6.546v-13.37
		c0-2.714-1.825-4.583-4.3-4.583c-2.479,0-4.301,1.869-4.301,4.583v13.37h-6.548V159.96L623.603,159.96z"/>
	<path d="M666.238,181.146c0-3.698-2.569-6.127-5.938-6.127c-3.36,0-5.934,2.43-5.934,6.127c0,3.689,2.573,6.122,5.934,6.122
		C663.669,187.267,666.238,184.835,666.238,181.146L666.238,181.146z M647.822,181.146c0-6.783,4.955-12.206,12.479-12.206
		c7.527,0,12.486,5.423,12.486,12.206c0,6.775-4.959,12.2-12.486,12.2C652.777,193.346,647.822,187.921,647.822,181.146
		L647.822,181.146z"/>
	<path d="M675.376,169.595h6.545v23.095h-6.545V169.595L675.376,169.595z M674.538,162.534c0-2.291,1.82-4.112,4.112-4.112
		c2.291,0,4.116,1.821,4.116,4.112c0,2.293-1.825,4.114-4.116,4.114C676.358,166.648,674.538,164.827,674.538,162.534
		L674.538,162.534z"/>
	<path d="M684.576,181.146c0-6.783,4.911-12.206,12.199-12.206c7.297,0,11.222,3.883,11.927,9.306h-6.826
		c-0.655-1.919-2.291-3.227-5.101-3.227c-2.941,0-5.651,2.43-5.651,6.127c0,3.689,2.664,6.122,5.651,6.122
		c2.763,0,4.352-1.218,5.101-3.224h6.826c-1.073,5.656-4.86,9.302-11.927,9.302C689.487,193.346,684.576,187.921,684.576,181.146
		L684.576,181.146z"/>
	<path d="M716.774,177.775h10.707c-0.657-2.292-2.479-3.79-5.471-3.79C719.626,173.986,717.616,175.435,716.774,177.775
		L716.774,177.775z M733.607,182.685h-17.158c0.278,3.179,2.663,5.236,5.515,5.236c2.667,0,4.629-1.402,5.189-3.507h6.267
		c-1.124,5.657-5.283,8.932-11.456,8.932c-7.25,0-12.017-5.334-12.017-12.2c0-7.203,5.473-12.206,11.97-12.206
		c7.292,0,11.69,4.443,11.69,12.717V182.685L733.607,182.685z"/>
	<polygon points="731.364,161.801 735.261,161.801 735.261,162.632 733.765,162.632 733.765,167.034 732.86,167.034 732.86,162.632 
		731.364,162.632 731.364,161.801 	"/>
	<path d="M738.531,165.728l-1.422-3.927h-1.086v5.233h0.874v-2.922c0-0.286-0.027-0.525-0.051-0.801l1.355,3.723h0.658l1.348-3.723
		c-0.024,0.275-0.044,0.515-0.044,0.801v2.922h0.873v-5.233h-1.092L738.531,165.728L738.531,165.728z"/>
</g>
<line fill="none" stroke="#A2A4A7" stroke-miterlimit="10" x1="535.698" y1="79.051" x2="535.698" y2="194.303"/>
<g>
	<path fill="#FFFFFF" d="M432.883,172.708c0.723,0.946,1.084,2.089,1.084,3.429c0,1.957-0.787,3.466-2.36,4.53
		c-1.574,1.063-3.85,1.595-6.827,1.595h-12.058v-22.329h11.42c2.849,0,5.019,0.526,6.507,1.579c1.488,1.053,2.233,2.472,2.233,4.258
		c0,1.063-0.261,2.015-0.782,2.855c-0.521,0.84-1.26,1.505-2.217,1.994C431.16,171.065,432.16,171.762,432.883,172.708z
		 M418.975,164.494v4.306h4.338c2.126,0,3.19-0.723,3.19-2.169c0-1.424-1.063-2.137-3.19-2.137H418.975z M427.587,175.436
		c0-1.51-1.106-2.265-3.317-2.265h-5.295v4.53h5.295C426.481,177.7,427.587,176.946,427.587,175.436z"/>
	<path fill="#FFFFFF" d="M453.362,177.253v5.008h-17.385v-3.956l8.357-7.815c0.808-0.766,1.35-1.419,1.627-1.962
		c0.276-0.542,0.415-1.089,0.415-1.643c0-0.723-0.245-1.287-0.734-1.691c-0.489-0.404-1.202-0.606-2.137-0.606
		c-0.829,0-1.59,0.187-2.281,0.558c-0.691,0.373-1.26,0.909-1.707,1.611l-4.689-2.616c0.872-1.446,2.094-2.583,3.668-3.413
		c1.573-0.829,3.434-1.244,5.582-1.244c1.701,0,3.206,0.277,4.514,0.83c1.308,0.553,2.329,1.345,3.063,2.376
		c0.733,1.032,1.101,2.228,1.101,3.588c0,1.212-0.261,2.355-0.782,3.429c-0.521,1.074-1.526,2.292-3.014,3.652l-4.211,3.892H453.362
		z"/>
	<path fill="#FFFFFF" d="M476.52,172.708c0.723,0.946,1.084,2.089,1.084,3.429c0,1.957-0.787,3.466-2.36,4.53
		c-1.574,1.063-3.85,1.595-6.827,1.595H456.36v-22.329h11.42c2.849,0,5.019,0.526,6.507,1.579c1.488,1.053,2.233,2.472,2.233,4.258
		c0,1.063-0.261,2.015-0.782,2.855c-0.521,0.84-1.26,1.505-2.217,1.994C474.797,171.065,475.797,171.762,476.52,172.708z
		 M462.612,164.494v4.306h4.338c2.126,0,3.19-0.723,3.19-2.169c0-1.424-1.063-2.137-3.19-2.137H462.612z M471.225,175.436
		c0-1.51-1.106-2.265-3.317-2.265h-5.295v4.53h5.295C470.119,177.7,471.225,176.946,471.225,175.436z"/>
</g>
</svg>
